<svg width="930" height="773" viewBox="0 0 930 773" fill="none" xmlns="http://www.w3.org/2000/svg">
<path d="M667.168 118.267C669.85 120.144 673.8 122.996 677.371 125.593V424.948C677.371 548.127 597.039 629.979 512.481 682.195C470.423 708.167 428.209 726.194 396.421 737.731C380.559 743.488 367.372 747.601 358.207 750.261C354.165 751.434 350.91 752.323 348.556 752.945C346.203 752.324 342.949 751.435 338.908 750.263C329.743 747.604 316.559 743.493 300.699 737.738C268.915 726.205 226.707 708.184 184.654 682.215C102.894 631.727 25.0807 553.516 20.0434 436.989L511.131 210.467L548.37 193.29L511.189 175.988C462.786 153.463 407.7 135.601 348.598 135.601C289.496 135.601 234.424 153.464 185.997 175.986L175.01 181.096V193.214V268.617C157.827 265.588 133.636 259.384 107.899 250.224C73.4557 237.966 40.201 221.784 19.7847 204.228V125.582C23.3723 122.978 27.3213 120.139 29.9869 118.296C123.662 53.696 234.783 19.0981 348.598 19.0981C462.396 19.0981 573.502 53.6856 667.168 118.267ZM351.756 637.069L354.743 636.048L348.598 618.069C354.743 636.048 354.747 636.047 354.751 636.045L354.763 636.041L354.796 636.03L354.904 635.992C354.995 635.961 355.123 635.917 355.286 635.86C355.612 635.747 356.081 635.582 356.684 635.369C357.888 634.942 359.625 634.318 361.82 633.507C366.208 631.888 372.436 629.52 379.894 626.495C394.764 620.464 414.736 611.734 434.832 601.019C454.758 590.395 475.673 577.367 491.866 562.534C507.462 548.249 522.187 529.078 522.187 506.058V363.336V333.664L495.237 346.079L186.074 488.501L175.024 493.592V505.758V506.058C175.024 529.075 189.739 548.244 205.33 562.531C221.516 577.364 242.423 590.393 262.344 601.018C282.435 611.733 302.403 620.464 317.277 626.496C324.736 629.521 330.968 631.889 335.363 633.51C337.561 634.32 339.305 634.946 340.517 635.374C341.123 635.589 341.601 635.755 341.94 635.872L342.095 635.926C342.197 635.961 342.286 635.992 342.362 636.018C342.415 636.035 342.481 636.058 342.547 636.08L342.556 636.083C342.586 636.093 342.65 636.114 342.726 636.139C342.777 636.155 342.917 636.2 343.009 636.228C343.25 636.301 346.021 636.893 348.598 637.069H351.756ZM910.544 666.383C910.544 714.535 871.482 753.59 823.272 753.59C775.062 753.59 736 714.535 736 666.383C736 618.231 775.062 579.176 823.272 579.176C871.482 579.176 910.544 618.231 910.544 666.383Z" fill="#3C59C3" stroke="white" stroke-width="38"/>
</svg>
