<?xml version="1.0" encoding="utf-8"?>
<!-- Generator: Adobe Illustrator 23.1.0, SVG Export Plug-In . SVG Version: 6.00 Build 0)  -->
<svg version="1.1" id="Слой_1" xmlns="http://www.w3.org/2000/svg" xmlns:xlink="http://www.w3.org/1999/xlink" x="0px" y="0px"
	 viewBox="0 0 511 512" style="enable-background:new 0 0 511 512;" xml:space="preserve">
<style type="text/css">
	.st0{fill-rule:evenodd;clip-rule:evenodd;fill:#FFFFFF;}
</style>
<path class="st0" d="M237,0.2c-1.9,0.2-7.8,0.9-13,1.4c-33,3.6-69.5,16-99,33.6c-37.5,22.4-68,52.9-90.4,90.4
	c-17.3,29-29.4,64.3-33.5,98c-1.3,11-1.3,53.1,0,64.1c9.6,77.8,55.5,147.5,123.9,188.4c67.1,40,150.8,46.5,224.5,17.4
	c11.2-4.4,35.2-16.6,40.1-20.3c5-3.8,7.8-10.5,7.1-17.2c-1-10.1-7.9-17-17.9-18c-5.1-0.5-5.9-0.2-18.8,6.5
	c-33.8,17.6-62.7,25.6-97.5,26.9c-95,3.7-182.7-57.6-212.4-148.4c-9.6-29.4-13-58.4-10.1-87.5c3.3-32.9,15.6-69.3,32-94.3
	c29.2-44.5,68.1-75,115.7-90.5C250.1,30.3,315.8,38.6,371.7,74c5,3.2,10.9,6.2,13,6.7c15.6,3.6,29.2-13,22.4-27.6
	c-2.3-5-4.3-6.8-16.1-14.2C359.5,19.1,324.2,6.6,286,1.6C277.1,0.5,243.1-0.5,237,0.2z M484.3,41.9c-1.8,0.6-4.5,2.2-6.2,3.6
	c-1.6,1.4-50.1,61.3-107.7,133.1S264.7,309.9,263.6,310.9c-3.4,2.8-8.1,3.2-12,1.1c-1.9-1-26.8-24-55.4-51.1
	c-28.6-27.1-53-50.1-54.3-51.1c-7.8-6-18.5-5.3-25.6,1.9c-7.3,7.3-8.1,18.1-1.9,25.9c3.4,4.3,102.3,98.2,109.7,104.3
	c20.4,16.6,49,15.5,67.6-2.6c6.6-6.4,214.7-265,217.1-269.7C516.6,53.7,501.3,36.4,484.3,41.9z M476,178.3
	c-10.6,4.6-14,14.2-10.5,29.3c4.6,19.5,6.4,46.2,4.5,66.1c-3.3,34.6-13.7,65.9-32,96c-7.7,12.6-8.5,17.1-4.8,25.3
	c1.9,4.2,3.5,6.1,6.9,8c5.8,3.3,10.9,4.2,16.3,2.7c7.4-2.1,11.6-7.1,23.1-28c29.7-53.6,38.7-118.6,24.9-178.5
	c-2-8.7-3.2-11.9-5.7-14.9C493.1,177.4,483.7,174.9,476,178.3z"/>
</svg>
