<?xml version="1.0" encoding="utf-8"?>
<!-- Generator: Adobe Illustrator 23.1.0, SVG Export Plug-In . SVG Version: 6.00 Build 0)  -->
<svg version="1.1" id="Слой_1" xmlns="http://www.w3.org/2000/svg" xmlns:xlink="http://www.w3.org/1999/xlink" x="0px" y="0px"
	 viewBox="0 0 391 493" style="enable-background:new 0 0 391 493;" xml:space="preserve">
<style type="text/css">
	.st0{fill-rule:evenodd;clip-rule:evenodd;fill:#FFFFFF;}
</style>
<path class="st0" d="M22.5,2.4C12.9,4.9,5,12.3,1.8,21.4C0.1,26.2,0,36.7,0,215v188.5l2.7,5.7c3.4,7.3,9.6,13.2,16.5,15.8
	c4.9,1.8,7.7,2,29.4,2h23.9l0.3,21.3c0.3,19.8,0.5,21.6,2.7,26.5c2.9,6.5,10.1,13.4,16.7,15.9c4.8,1.9,9.3,1.9,140.5,1.9H368
	l5.7-2.8c7-3.4,13.1-10.1,15.5-17c1.7-4.9,1.8-14.9,1.8-202.7s-0.1-197.8-1.8-202.7c-2.4-6.9-8.5-13.6-15.5-17l-5.7-2.8l-36.5-0.3
	L295,46.9L273,25c-12.1-12-23.3-22.4-24.8-22.9C243.9,0.4,28.5,0.7,22.5,2.4z M234.5,60c0,26.3,0.4,38.7,1.1,40.5
	c2.4,5.4,4.4,5.6,45.3,5.6h37.6l-0.3,147.5L318,401l-2.8,2.8l-2.8,2.8l-141.7,0.3C30.5,407,29,407,25.7,405
	c-1.8-1.1-3.7-3.2-4.3-4.6c-0.6-1.6-1-69.8-1-187.6v-185l2.9-2.9l2.9-2.9h104.1h104.1V60z M280,61l24,24h-24.7h-24.7V61
	c0-13.2,0.3-24,0.8-24C255.7,37,266.8,47.8,280,61z M367.6,70.9l2.9,2.9V270v196.2l-2.9,2.9l-2.9,2.9H232.2H99.7l-3.1-2.6l-3.1-2.6
	v-19.9V427h109.8c126,0,116.7,0.7,126.2-8.8c9.9-9.9,9,6.2,9-169.8c0-105.3-0.3-155.1-1-157c-0.6-1.5-5.6-7.4-11.2-13.1L316.1,68
	h24.3h24.3L367.6,70.9z M57.9,127c-5.9,2.4-7.2,10.9-2.4,16.2l2.9,3.3l45.3,0.3c30.7,0.2,46.5,0,49.1-0.8c8.1-2.4,9.3-14.6,1.8-18.5
	c-2.6-1.3-9.3-1.5-48.8-1.5C80.6,126.1,59,126.5,57.9,127z M57.8,176.5c-3.9,1.7-5.3,4.2-5.3,9.3c0,4.6,1.9,7.6,5.7,9.2
	c2.1,0.9,31.4,1.1,112.6,0.9l109.8-0.3l2.9-3.3c4.9-5.4,3.2-13.9-3.2-16.1c-2.3-0.8-34.6-1.1-111.3-1.1
	C79.5,175.1,60.5,175.3,57.8,176.5z M234.6,245.1c-1.3,0.5-21.7,20.1-45.4,43.5l-43,42.6l-20.7-20.6c-22.2-22.1-22.7-22.4-29.1-19.1
	c-3.6,1.9-5,4.3-5,9c0,3.2,1.2,4.9,11.9,16.3c18.8,20,37.3,38,40.4,39.1c2.1,0.8,3.6,0.7,6-0.4c1.8-0.8,24.7-22.7,51-48.7
	c44.1-43.6,47.8-47.6,47.8-50.6C248.4,248.4,241.1,242.5,234.6,245.1z"/>
</svg>
