<?xml version="1.0" encoding="utf-8"?>
<!-- Generator: Adobe Illustrator 23.1.0, SVG Export Plug-In . SVG Version: 6.00 Build 0)  -->
<svg version="1.1" id="Outline" xmlns="http://www.w3.org/2000/svg" xmlns:xlink="http://www.w3.org/1999/xlink" x="0px" y="0px"
	 viewBox="0 0 429 512" style="enable-background:new 0 0 429 512;" xml:space="preserve">
<style type="text/css">
	.st0{fill:#838795;}
</style>
<path class="st0" d="M214.5,128c-47.1,0-85.3,38.2-85.3,85.3s38.2,85.3,85.3,85.3s85.3-38.2,85.3-85.3S261.6,128,214.5,128z
	 M214.5,256c-23.6,0-42.7-19.1-42.7-42.7s19.1-42.7,42.7-42.7s42.7,19.1,42.7,42.7S238.1,256,214.5,256z"/>
<path class="st0" d="M214.5,512c-36.5,0.2-70.7-17.3-92-46.9C41.2,352.9,0,268.6,0,214.5C0,96,96.1,0,214.5,0
	C333,0,429,96,429,214.5c0,54.1-41.2,138.5-122.5,250.6C285.2,494.7,251,512.2,214.5,512z M214.5,46.5c-92.7,0.1-167.9,75.3-168,168
	c0,42.9,40.4,122.2,113.7,223.3c21.8,30,63.7,36.6,93.7,14.9c5.7-4.1,10.7-9.2,14.9-14.9c73.3-101.1,113.7-180.4,113.7-223.3
	C382.4,121.8,307.2,46.7,214.5,46.5z"/>
</svg>
