<?xml version="1.0" encoding="utf-8"?>
<!-- Generator: Adobe Illustrator 23.1.0, SVG Export Plug-In . SVG Version: 6.00 Build 0)  -->
<svg version="1.1" id="Layer_1" xmlns="http://www.w3.org/2000/svg" xmlns:xlink="http://www.w3.org/1999/xlink" x="0px" y="0px"
	 viewBox="0 0 512 512" style="enable-background:new 0 0 512 512;" xml:space="preserve">
<style type="text/css">
	.st0{fill:#D82128;}
</style>
<path class="st0" d="M511.6,43.2v85.3c0,11.8-9.6,21.3-21.3,21.3c-11.8,0-21.3-9.6-21.3-21.3V73.8L355.8,186.3
	c-8.5,8.2-22,7.9-30.2-0.6c-8-8.3-7.9-21.4,0.1-29.6L439.3,43.2h-55.7c-11.8,0-21.3-9.6-21.3-21.3s9.6-21.3,21.3-21.3h85.3
	C492.5,0.5,511.6,19.6,511.6,43.2z M492.3,357.6c25.7,25.8,25.7,67.6,0,93.4l-19.5,22.4C298.1,640.6-127.1,215.6,37.6,40.3L62.1,19
	c25.8-25,67-24.6,92.4,0.8c0.6,0.7,40.2,52,40.2,52c24.4,25.6,24.3,65.8-0.1,91.3l-24.7,31.1c27.6,67.1,80.8,120.4,147.9,148.2
	l31.3-24.9c25.5-24.4,65.7-24.5,91.3-0.1C440.2,317.4,491.6,356.9,492.3,357.6L492.3,357.6z M462.9,388.6c0,0-51.1-39.3-51.7-39.9
	c-9.1-9.1-23.9-9.1-33,0c-0.6,0.6-43.6,34.9-43.6,34.9c-5.9,4.7-13.8,5.9-20.9,3.2c-87.1-32.4-155.8-101-188.2-188
	c-2.9-7.1-1.7-15.2,3.1-21.2c0,0,34.3-43,34.9-43.6c9.1-9.1,9.1-23.9,0-33c-0.6-0.6-39.9-51.7-39.9-51.7c-9.3-8.3-23.4-8-32.2,0.8
	L66.7,71.3C-53.7,216,314.8,564.1,441.6,444.3l19.5-22.4C470.6,413.1,471.4,398.4,462.9,388.6z"/>
</svg>
