<?xml version="1.0" encoding="utf-8"?>
<!-- Generator: Adobe Illustrator 23.1.0, SVG Export Plug-In . SVG Version: 6.00 Build 0)  -->
<svg version="1.1" id="Слой_1" xmlns="http://www.w3.org/2000/svg" xmlns:xlink="http://www.w3.org/1999/xlink" x="0px" y="0px"
	 viewBox="0 0 392 436" style="enable-background:new 0 0 392 436;" xml:space="preserve">
<style type="text/css">
	.st0{fill-rule:evenodd;clip-rule:evenodd;fill:#FFFFFF;}
</style>
<path class="st0" d="M260.3,3c-14.6,7.7-27.9,21.1-35.2,35.5c-1.1,2.2-3.3,7.8-4.8,12.5c-2.5,7.6-2.8,10-2.9,22.5
	c-0.1,11.7,0.3,15.3,2.2,21.8c4.2,14.4,12.5,28.2,22.7,37.5l5.6,5.1v23.9v23.9l-6.3,1.2c-9.8,1.9-26.4,7.7-35.1,12.4
	c-4.3,2.3-13.8,8.7-21,14.1c-16.7,12.6-24.9,17.9-33.4,21.7c-8.3,3.7-20.9,7.5-28.3,8.4l-5.5,0.7l-1.8-5.2
	c-2.3-6.4-7.3-12.1-13.5-15.2c-4.7-2.3-4.8-2.3-44.2-2.3H19.3l-5.5,3c-6.2,3.4-11.5,9.7-13,15.5c-0.7,2.6-1,32.3-0.8,90.2l0.3,86.3
	l2.2,4.1c3.2,5.9,9.4,11.1,15.4,12.9c7.9,2.3,74,2.3,81.9-0.1c7.1-2.1,13.9-8.8,16.5-16.1c1-2.9,2.4-5.3,3-5.3
	c4.2,0,21.8,5.7,31.9,10.3c11.7,5.4,20.5,8.4,31.5,10.8c3.9,0.9,25.5,1.3,74.3,1.6c60.5,0.4,69.5,0.2,75-1.2
	c12.1-3.1,20.9-10.3,26.1-21.4c2.8-6,3.1-7.6,3.1-15.7c0-6-0.6-10.2-1.7-12.7c-1.6-3.6-1.6-3.7,1.3-6.5c9.5-9.1,13.2-25.7,8.6-38.9
	l-1.4-4l4.3-4.8c6.1-6.8,8.8-14.2,8.7-24.2c0-4.4-0.7-9.8-1.4-12l-1.4-4l4.6-6.2c9.8-12.9,11.1-27.7,3.6-41.6
	c-5.7-10.7-16.3-18-29-19.8c-3.4-0.5-24.6-0.9-47-0.9l-40.8,0v-44.9c0-30.2-0.4-45.9-1.1-48c-0.7-2-3.4-4.9-7.1-7.8
	c-13.7-10.6-21.4-25.3-22.5-42.9c-0.9-15.4,3.9-29.8,13.6-40.6l4.8-5.3l0.5,15c0.4,13.4,0.8,15.7,3,20.6c3.3,7.2,9.7,13.3,16.7,15.9
	c4.9,1.8,7.3,2,21,1.7c12.8-0.3,16.1-0.7,19-2.2c7.1-3.8,10.9-7.7,14.2-14.4c3.2-6.5,3.3-7.1,3.6-21.4c0.2-8.1,0.6-14.7,1-14.7
	c1.5,0.1,9.5,10.9,12.2,16.4c12.3,25.2,5.2,54.9-17.1,72.2c-4.6,3.6-6.2,5.5-7,8.5c-0.7,2.5-0.9,16-0.7,37.1
	c0.3,29.7,0.5,33.4,2.1,35.8c4.4,6.5,14.1,6.5,18.5,0c1.6-2.3,1.8-5.9,2.1-33.6l0.3-31l7.3-7.6c8.9-9.3,14.4-18.5,18.7-30.9
	c3.1-9,3.3-10.3,3.3-24c0-16.8-1.2-22.9-7.5-35.7c-7.6-15.6-20.5-28.8-35.4-36.3c-3.3-1.6-7.2-3-8.8-3c-3.6,0-8.3,2.3-9.4,4.7
	c-0.5,1-1.1,13.3-1.4,27.5c-0.5,25.5-0.5,25.7-2.9,28.3c-2.3,2.5-2.8,2.6-14.1,2.6c-16.8,0-15.8,2-16.2-30
	c-0.3-22.4-0.5-25.8-2.1-28.1C274.7-0.7,268.6-1.4,260.3,3z M247.7,222.5c-0.2,11.2,0.1,13.9,1.5,16.1c3.5,5.4,4.3,5.4,58.8,5.4
	h50.3l3.7,2.5c11.1,7.5,9.1,22.5-3.8,28.6c-8.3,3.9-9.4,11-3.1,19.2c4.5,6,5.4,11.1,2.9,16.8c-2.2,4.9-3.6,6.3-10.1,9.8
	c-3.3,1.8-5,3.5-6,6.2c-1.7,4.6-1.1,7.4,2.8,12.3c7.9,10,5.6,21.2-5.4,26.4c-8.8,4.2-10.5,11.4-4.4,19.3c4.1,5.3,5.3,9.3,4.3,14.4
	c-0.9,4.6-6.8,11.1-11.4,12.3c-2.3,0.6-27,1-66.2,1c-77.3,0-78.2-0.1-102.9-11.4c-11.7-5.4-23-9-33.4-10.7l-7.8-1.3l0.3-61.5
	l0.3-61.5l10.5-1.8c23.2-3.9,40.8-12.1,64.5-29.9c8.8-6.6,19.6-13.9,24-16.2c8.7-4.6,23.4-9.7,27.8-9.8l2.8,0L247.7,222.5z
	 M95.6,327.4c0.2,60.4-0.1,83.3-0.9,84.3c-1.5,1.9-69.8,2-71.7,0.2c-0.9-0.9-1.2-20.9-1.2-83.8c0-45.4,0.3-82.9,0.7-83.3
	c0.4-0.4,16.9-0.6,36.8-0.4l36.1,0.3L95.6,327.4z"/>
</svg>
